<?xml version="1.0" encoding="utf-8"?>
<!-- Generator: Adobe Illustrator 23.0.2, SVG Export Plug-In . SVG Version: 6.00 Build 0)  -->
<svg version="1.0" id="Layer_1" xmlns="http://www.w3.org/2000/svg" xmlns:xlink="http://www.w3.org/1999/xlink" x="0px" y="0px"
	 width="1192.8px" height="130.1px" viewBox="0 0 1192.8 130.1" style="enable-background:new 0 0 1192.8 130.1;"
	 xml:space="preserve">
<style type="text/css">
	.st0{fill:#FFFFFF;}
</style>
<g>
	<path class="st0" d="M37.6,78.7H19v51.3H0V0h37.6c25.7,0,45.9,11.6,45.9,39.4C83.5,67.1,63.3,78.7,37.6,78.7z M37.6,17.4H19v43.9
		h18.6c14.4,0,26.9-6,26.9-22C64.5,23.4,52,17.4,37.6,17.4z"/>
	<path class="st0" d="M214.8,130.1V73.5h-53.6v56.6h-19V0h19v56.1h53.6V0h19v130.1H214.8z"/>
	<path class="st0" d="M363.3,132.5c-37.3,0-67.7-30.2-67.7-67.5c0-37.6,30.2-67.5,67.7-67.5c38,0,67.7,30.1,67.7,67.8
		C431,102.5,400.4,132.5,363.3,132.5z M363.3,14.9c-20.2,0-36.2,10.9-44.1,29.4c-2.8,6.5-4.6,13.5-4.6,20.7c0,7.2,1.8,14.4,4.6,21.1
		c8.1,18.3,24.1,29,44.1,29c21.4,0,38-12.3,45.3-32.2c2.1-5.4,3.3-11.4,3.3-17.4C412,38,391.6,14.9,363.3,14.9z"/>
	<path class="st0" d="M522.4,17.4v112.7h-19V17.4h-25V0h68.9v17.4H522.4z"/>
	<path class="st0" d="M662.6,132.5c-37.3,0-67.7-30.2-67.7-67.5c0-37.6,30.2-67.5,67.7-67.5c38,0,67.7,30.1,67.7,67.8
		C730.3,102.5,699.7,132.5,662.6,132.5z M662.6,14.9c-20.2,0-36.2,10.9-44.1,29.4c-2.8,6.5-4.6,13.5-4.6,20.7
		c0,7.2,1.8,14.4,4.6,21.1c8.1,18.3,24.1,29,44.1,29c21.4,0,38-12.3,45.3-32.2c2.1-5.4,3.3-11.4,3.3-17.4
		C711.3,38,690.9,14.9,662.6,14.9z"/>
	<path class="st0" d="M822.4,132.5c-23.7,0-40.1-17.4-40.1-41h19c0,12.7,7.4,23.6,21.1,23.6c13,0,20.9-9.3,20.9-22
		c0-13.9-10-17-20.9-21.3c-20.2-7.7-36.4-13.7-36.4-39c0-20.2,16.5-35.3,36.4-35.3c21.6,0,37.3,14.2,37.3,36.2h-19
		c0-11.2-7-18.8-18.3-18.8c-9.5,0-17.4,8.3-17.4,17.8c0,27.6,57.3,11.1,57.3,60.5C862.3,116.5,845.6,132.5,822.4,132.5z"/>
	<path class="st0" d="M922.2,130.1V0h19v130.1H922.2z"/>
	<path class="st0" d="M1041.6,17.4v112.7h-19V17.4h-25V0h68.9v17.4H1041.6z"/>
	<path class="st0" d="M1121.5,130.1V0h70.1v17.4h-51.1v38.3h51.1v17.4h-51.1v39.5h51.1v17.4H1121.5z"/>
</g>
</svg>
