<?xml version="1.0" encoding="utf-8"?>
<!-- Generator: Adobe Illustrator 23.0.2, SVG Export Plug-In . SVG Version: 6.00 Build 0)  -->
<svg version="1.0" id="Layer_1" xmlns="http://www.w3.org/2000/svg" xmlns:xlink="http://www.w3.org/1999/xlink" x="0px" y="0px"
	 width="461.4px" height="48.9px" viewBox="0 0 461.4 48.9" style="enable-background:new 0 0 461.4 48.9;" xml:space="preserve">
<style type="text/css">
	.st0{fill:#FFFFFF;}
</style>
<g>
	<path class="st0" d="M3.4,15.2c0.1-0.4,0.3-0.5,0.5-0.4c0.3,0.1,0.4,0.3,0.5,0.6L2.4,31c2.2-6.2,4.3-10.6,6.1-13.1
		c1.9-2.5,3.3-3.7,4.3-3.7c0.5,0,0.9,0.2,1.2,0.6c0.3,0.4,0.4,0.9,0.4,1.5c0,0.8-0.3,1.6-0.9,2.5C13,19.6,12.1,20,10.9,20
		c-0.3-0.1-0.4-0.4-0.4-0.8c0-0.4,0.2-0.6,0.4-0.6c0.8,0.1,1.4-0.2,1.9-0.7c0.5-0.5,0.7-1,0.7-1.5c0-0.4-0.2-0.6-0.6-0.6
		c-0.5,0-1.2,0.4-1.9,1.1c-0.8,0.7-1.6,1.9-2.6,3.6c-1,1.6-2,3.8-3.2,6.5c-1.1,2.7-2.4,6-3.6,9.9c-0.1,0.4-0.3,0.5-0.5,0.3
		c-0.3-0.1-0.4-0.4-0.3-0.7L3.4,15.2z"/>
	<path class="st0" d="M22.8,2.6c0.1-0.4,0.3-0.6,0.6-0.6c0.3,0,0.4,0.3,0.4,0.8l-1.9,15.8c0.8-1.5,1.5-2.5,2.2-3.1
		c0.6-0.6,1.3-0.9,1.9-0.9c0.4,0,0.8,0.3,1,0.8c0.3,0.6,0.5,1.1,0.7,1.7c0.2,0.6,0.6,1.3,1,2c0.4,0.7,1,1.1,1.7,1.1
		c1.3,0,3.2-0.5,5.6-1.4c2.4-0.9,4.9-2.3,7.3-4.1c0.2-0.1,0.4,0,0.6,0.4c0.1,0.4,0.1,0.7-0.1,0.9c-1.3,1-2.6,1.8-3.9,2.5
		c-1.3,0.7-2.6,1.3-3.7,1.7c-1.2,0.5-2.3,0.8-3.3,1.1c-1,0.2-1.8,0.4-2.5,0.4c-1.1,0-1.9-0.4-2.4-1.3c-0.5-0.8-0.9-1.7-1.1-2.6
		c-0.3-1.1-0.6-1.7-0.9-1.7c-0.6,0-1.2,0.5-2,1.5c-0.8,1-1.7,2.6-2.7,4.8c-0.1,0.3-0.3,0.4-0.5,0.3c-0.3-0.1-0.4-0.3-0.3-0.7
		L22.8,2.6z"/>
	<path class="st0" d="M44.2,13.7c0.3-0.1,0.5,0,0.6,0.5c0.1,0.5,0.1,0.8-0.2,0.9c-0.4,0.2-0.7,0.6-1,1.2c-0.3,0.6-0.5,1.2-0.6,1.8
		c-0.1,0.6-0.2,1.2-0.2,1.7c0,0.5,0.2,0.7,0.5,0.7c0.4,0,0.7-0.4,0.9-1.3c0.2-0.8,0.3-1.8,0.2-2.7c0-0.5,0-0.8,0.2-0.9
		c0.2-0.1,0.4-0.2,0.6-0.1c0.9,0.3,1.7,0.5,2.6,0.6c0.9,0.1,1.8,0.2,2.7,0.2c3,0,5.6-0.6,7.7-1.7c0.3-0.1,0.5,0,0.6,0.5
		c0.1,0.5,0,0.8-0.3,1c-2.1,1.1-4.8,1.7-8,1.7c-1,0-1.9,0-2.7-0.1c-0.9-0.1-1.6-0.2-2.3-0.3c0,1-0.1,2-0.5,3.1
		c-0.4,1.1-1,1.6-1.8,1.6c-0.7,0-1.1-0.4-1.3-1.2c-0.2-0.8-0.2-1.6-0.1-2.6c0.1-0.9,0.4-1.9,0.8-2.8C43.2,14.6,43.6,14,44.2,13.7z"
		/>
	<path class="st0" d="M58.8,2.8c0.1-0.4,0.3-0.6,0.6-0.5c0.3,0.1,0.5,0.4,0.4,0.9l-0.2,1.3c3.7-1.1,7.4-2,11.2-2.7
		c3.7-0.7,7.7-1.2,11.9-1.4c0.4,0,0.6,0.3,0.6,0.8S83,2,82.6,1.9c-4.2,0.3-8.2,0.8-11.9,1.5C66.9,4.1,63.1,5,59.3,6.1
		c-0.1,1-0.2,2-0.3,3c-0.1,1-0.1,2-0.1,3c0,1.3,0.1,2.6,0.2,3.9c0.2,1.3,0.5,2.4,0.9,3.4c0.4,1,1,1.9,1.7,2.6
		c0.7,0.7,1.6,1.2,2.7,1.4c0.4,0.1,0.6,0.3,0.5,0.8c-0.1,0.5-0.3,0.7-0.7,0.6c-1.2-0.2-2.3-0.7-3.1-1.5c-0.8-0.8-1.5-1.8-2-2.9
		c-0.5-1.2-0.8-2.5-1-3.9c-0.2-1.4-0.3-2.9-0.3-4.4c0-1.8,0.1-3.7,0.4-5.7c-1.3,0.4-2.6,0.8-3.9,1.3c-1.3,0.4-2.6,0.9-4,1.4
		c-0.4,0.2-0.6,0-0.7-0.5c-0.1-0.6,0-0.9,0.4-0.9c1.5-0.5,2.9-1,4.3-1.4c1.4-0.5,2.8-0.9,4.1-1.3c0.1-0.4,0.2-0.7,0.2-1
		C58.6,3.5,58.7,3.2,58.8,2.8z"/>
	<path class="st0" d="M71.4,13.7c0.3-0.1,0.5,0,0.6,0.5c0.1,0.5,0.1,0.8-0.2,0.9c-0.4,0.2-0.7,0.6-1,1.2c-0.3,0.6-0.5,1.2-0.6,1.8
		c-0.1,0.6-0.2,1.2-0.2,1.7c0,0.5,0.2,0.7,0.5,0.7c0.4,0,0.7-0.4,0.9-1.3c0.2-0.8,0.3-1.8,0.2-2.7c0-0.5,0-0.8,0.2-0.9
		c0.2-0.1,0.4-0.2,0.6-0.1c0.9,0.3,1.7,0.5,2.6,0.6c0.9,0.1,1.8,0.2,2.7,0.2c3,0,5.6-0.6,7.7-1.7c0.3-0.1,0.5,0,0.6,0.5
		c0.1,0.5,0,0.8-0.3,1c-2.1,1.1-4.8,1.7-8,1.7c-1,0-1.9,0-2.7-0.1c-0.9-0.1-1.6-0.2-2.3-0.3c0,1-0.1,2-0.5,3.1
		c-0.4,1.1-1,1.6-1.8,1.6c-0.7,0-1.1-0.4-1.3-1.2c-0.2-0.8-0.2-1.6-0.1-2.6c0.1-0.9,0.4-1.9,0.8-2.8C70.3,14.6,70.8,14,71.4,13.7z"
		/>
	<path class="st0" d="M102,14.6c0.3-0.1,0.5,0,0.6,0.5c0.1,0.5,0,0.8-0.3,0.9c-3.5,1.3-6.9,2.8-10.4,4.3c0,2.2-0.4,4.9-1.2,7.9
		c-0.8,3-1.9,6-3.2,8.8c-1.4,2.8-3,5.2-4.9,7.1c-1.9,2-4,2.9-6.3,2.9c-1.4,0-2.6-0.7-3.6-2.2c-1-1.5-1.5-3.2-1.5-5.3
		c0-2.4,0.5-4.6,1.6-6.5c1.1-2,2.5-3.8,4.3-5.5c1.8-1.7,3.9-3.2,6.2-4.6c2.4-1.4,4.8-2.6,7.4-3.8c0-0.9-0.2-1.7-0.4-2.3
		c-0.7,0.6-1.3,1.2-2,1.8c-0.6,0.6-1.4,0.8-2.2,0.8c-0.6,0-1-0.2-1.4-0.6c-0.4-0.4-0.6-1-0.6-1.8c0-1,0.4-1.9,1.1-2.7
		c0.7-0.8,1.5-1.3,2.4-1.3c0.5,0,1.1,0.1,1.6,0.4c0.5,0.2,1,0.7,1.5,1.4c0.5-0.3,1-0.6,1.5-0.8c0.5-0.2,1-0.2,1.6-0.1
		c0.4,0.1,0.5,0.4,0.5,0.9c0,0.5-0.2,0.6-0.5,0.6c-0.9-0.2-1.7,0-2.6,0.7c0.2,0.6,0.4,1.4,0.5,2.5c1.7-0.8,3.4-1.5,5.1-2.2
		C98.7,15.9,100.4,15.2,102,14.6z M76.3,45.7c1.4,0,2.7-0.4,4-1.3c1.3-0.8,2.4-1.9,3.5-3.3c1.1-1.4,2-2.9,2.9-4.7
		c0.9-1.8,1.6-3.5,2.2-5.4c0.6-1.8,1.1-3.6,1.5-5.4c0.3-1.8,0.5-3.4,0.6-4.9c-2.5,1.1-4.8,2.3-7.1,3.7c-2.3,1.3-4.2,2.8-6,4.3
		c-1.7,1.5-3.1,3.2-4.1,5c-1,1.8-1.5,3.8-1.5,5.9c0,1.6,0.4,3,1.2,4.2C74.3,45.1,75.2,45.7,76.3,45.7z M86.3,18.2
		c0.7,0,1.3-0.2,1.9-0.7c0.6-0.5,1.2-1,1.7-1.6c-0.3-0.4-0.7-0.7-1-0.9c-0.4-0.2-0.7-0.3-1.1-0.3c-0.7,0-1.2,0.3-1.7,0.8
		c-0.5,0.5-0.7,1.1-0.7,1.7S85.6,18.2,86.3,18.2z"/>
	<path class="st0" d="M122.5,14.7c0.3-0.2,0.5-0.1,0.7,0.3c0.2,0.4,0.1,0.7-0.1,1c-1,1-2.2,1.9-3.5,2.7c-1.4,0.8-2.8,1.6-4.2,2.2
		c-1.5,0.6-2.9,1.1-4.4,1.5c-1.5,0.4-2.9,0.5-4.1,0.5c-0.8,0-1.5-0.4-2.1-1.1c-0.6-0.7-0.9-1.5-0.9-2.5c0-0.5,0.1-1.1,0.2-1.7
		c0.1-0.7,0.2-1.3,0.4-1.8c-1,0.2-1.9,0-2.6-0.5c-0.7-0.6-1-1.5-1-2.8c0-0.4,0.2-0.6,0.5-0.6c0.3-0.1,0.5,0.1,0.5,0.6
		c0,0.8,0.3,1.4,0.9,1.8c0.6,0.4,1.3,0.3,2.3-0.1c0.3-0.1,0.5,0,0.6,0.4c0.1,0.4,0.1,0.8-0.1,1.1c-0.2,0.5-0.4,1.1-0.5,1.8
		c-0.1,0.7-0.2,1.4-0.2,1.9c0,0.6,0.2,1.1,0.6,1.5c0.4,0.4,0.9,0.6,1.4,0.6c1.2,0,2.6-0.2,4-0.5c1.4-0.3,2.9-0.8,4.3-1.4
		c1.4-0.6,2.8-1.3,4.1-2.1C120.4,16.6,121.5,15.7,122.5,14.7z"/>
	<path class="st0" d="M127.8,15.2c-0.1,0.4-0.3,0.5-0.6,0.5c-0.3,0-0.4-0.3-0.4-0.7c0-0.3,0-0.6-0.1-0.9c-0.1-0.3-0.3-0.5-0.6-0.5
		c-0.4,0-0.8,0.2-1.2,0.5c-0.4,0.3-0.8,0.7-1.2,1.2c-0.4,0.5-0.7,1-1,1.5c-0.3,0.5-0.4,1-0.4,1.5c0,0.3,0.1,0.4,0.3,0.4
		c0.2,0,0.4-0.2,0.7-0.4c0.3-0.2,0.7-0.6,1-0.9c0.4-0.4,0.8-0.8,1.1-1.3c0.3-0.4,0.5-0.5,0.7-0.4c0.2,0.1,0.4,0.2,0.6,0.5
		c0.7,1,1.4,1.6,2.2,2c0.8,0.4,1.5,0.5,2.2,0.5c1.2,0,2.5-0.4,3.9-1.2c1.4-0.8,2.7-1.7,3.9-2.7c0.4-0.2,0.6-0.1,0.7,0.3
		c0.1,0.4,0.1,0.7-0.2,1c-1.2,1.1-2.6,2.1-4.1,2.9c-1.5,0.8-2.9,1.2-4.2,1.2c-1,0-1.9-0.2-2.7-0.7c-0.9-0.5-1.7-1.2-2.5-2.2
		c-1.2,1.7-2.3,2.6-3.2,2.8c-1,0.2-1.5-0.4-1.5-1.8c0-0.6,0.2-1.3,0.5-2c0.3-0.7,0.7-1.4,1.2-2c0.5-0.6,1-1.1,1.6-1.5
		c0.6-0.4,1.1-0.6,1.6-0.6c0.8,0,1.2,0.4,1.5,1.2C127.7,14,127.8,14.7,127.8,15.2z"/>
	<path class="st0" d="M138.9,15.2c0.1-0.4,0.3-0.5,0.5-0.4c0.3,0.1,0.4,0.3,0.5,0.6L137.8,31c2.2-6.2,4.3-10.6,6.1-13.1
		c1.9-2.5,3.3-3.7,4.3-3.7c0.5,0,0.9,0.2,1.2,0.6c0.3,0.4,0.4,0.9,0.4,1.5c0,0.8-0.3,1.6-0.9,2.5c-0.6,0.9-1.5,1.3-2.7,1.2
		c-0.3-0.1-0.4-0.4-0.4-0.8c0-0.4,0.2-0.6,0.4-0.6c0.8,0.1,1.4-0.2,1.9-0.7c0.5-0.5,0.7-1,0.7-1.5c0-0.4-0.2-0.6-0.6-0.6
		c-0.5,0-1.2,0.4-1.9,1.1c-0.8,0.7-1.6,1.9-2.6,3.6c-1,1.6-2,3.8-3.2,6.5c-1.1,2.7-2.4,6-3.6,9.9c-0.1,0.4-0.3,0.5-0.5,0.3
		c-0.3-0.1-0.4-0.4-0.3-0.7L138.9,15.2z"/>
	<path class="st0" d="M158.3,2.6c0.1-0.4,0.3-0.6,0.6-0.6c0.3,0,0.4,0.3,0.4,0.8l-1.9,15.8c0.8-1.5,1.5-2.5,2.2-3.1
		c0.6-0.6,1.3-0.9,1.9-0.9c0.4,0,0.8,0.3,1,0.8c0.3,0.6,0.5,1.1,0.7,1.7c0.2,0.6,0.6,1.3,1,2c0.4,0.7,1,1.1,1.7,1.1
		c1.3,0,3.2-0.5,5.6-1.4c2.4-0.9,4.9-2.3,7.3-4.1c0.2-0.1,0.4,0,0.6,0.4c0.1,0.4,0.1,0.7-0.1,0.9c-1.3,1-2.6,1.8-3.9,2.5
		c-1.3,0.7-2.6,1.3-3.7,1.7c-1.2,0.5-2.3,0.8-3.3,1.1c-1,0.2-1.8,0.4-2.5,0.4c-1.1,0-1.9-0.4-2.4-1.3c-0.5-0.8-0.9-1.7-1.1-2.6
		c-0.3-1.1-0.6-1.7-0.9-1.7c-0.6,0-1.2,0.5-2,1.5c-0.8,1-1.7,2.6-2.7,4.8c-0.1,0.3-0.3,0.4-0.5,0.3c-0.3-0.1-0.4-0.3-0.3-0.7
		L158.3,2.6z"/>
	<path class="st0" d="M201.6,14.6c0.3-0.1,0.5,0,0.6,0.5c0.1,0.5,0,0.8-0.3,0.9c-2.3,0.8-4.6,1.6-6.8,2.6c-2.3,0.9-4.4,1.9-6.5,3
		v0.8c0,1.6-0.2,3.4-0.6,5.5c-0.4,2-1,3.9-1.9,5.7c-0.8,1.8-1.9,3.2-3.1,4.4c-1.3,1.2-2.8,1.8-4.5,1.8c-1,0-1.7-0.5-2.4-1.4
		c-0.6-0.9-0.9-2-0.9-3.3c0-1.5,0.3-2.9,0.9-4.2c0.6-1.3,1.5-2.6,2.6-3.8c1.1-1.2,2.4-2.3,3.9-3.4c1.5-1.1,3.1-2.1,4.9-3
		c-0.1-1.3-0.5-2-1-2c-0.8,0-1.6,0.2-2.4,0.7c-0.8,0.5-1.6,0.7-2.6,0.7c-1.1,0-1.9-0.4-2.5-1.2c-0.6-0.8-0.8-2.1-0.5-3.9
		c0.1-0.3,0.3-0.5,0.6-0.5c0.3,0,0.4,0.2,0.4,0.7c-0.1,1.2,0,2.1,0.4,2.6c0.4,0.6,1,0.8,1.7,0.8c0.9,0,1.7-0.2,2.4-0.7
		c0.8-0.5,1.6-0.7,2.5-0.7c0.9,0,1.5,1,1.9,2.9c2.1-1.1,4.3-2,6.5-3C197.1,16.3,199.4,15.5,201.6,14.6z M178.5,38.4
		c1.6,0,2.9-0.5,4.1-1.6c1.1-1.1,2.1-2.5,2.9-4.1c0.8-1.6,1.3-3.4,1.7-5.2c0.4-1.8,0.5-3.5,0.5-4.9v-0.3c-1.7,0.9-3.2,1.9-4.6,2.8
		c-1.4,1-2.6,2-3.6,3.1c-1,1.1-1.8,2.2-2.4,3.4c-0.6,1.2-0.9,2.4-0.9,3.7c0,0.8,0.2,1.6,0.6,2.2S177.8,38.4,178.5,38.4z"/>
	<path class="st0" d="M219.3,15.1c0.1-0.3,0.3-0.5,0.6-0.3c0.3,0.1,0.4,0.4,0.4,0.7c-0.3,1.4-0.2,2.5,0.3,3.4
		c0.5,0.8,1.2,1.3,2.1,1.3c0.9,0,1.9-0.1,3-0.4c1.1-0.3,2.2-0.7,3.3-1.2c1.1-0.5,2.2-1.1,3.3-1.7c1.1-0.7,2.1-1.4,3-2.2
		c0.3-0.3,0.5-0.2,0.7,0.2c0.2,0.4,0.1,0.8-0.1,1.1c-1,0.8-2,1.6-3.1,2.3c-1.1,0.7-2.3,1.3-3.5,1.8c-1.2,0.5-2.3,0.9-3.5,1.2
		c-1.1,0.3-2.2,0.4-3.1,0.4c-1.3,0-2.3-0.6-3-1.7C218.9,18.8,218.8,17.2,219.3,15.1z M222.6,6.4c-0.3,0.1-0.5,0-0.6-0.5
		c-0.1-0.5,0-0.8,0.3-0.9l2.1-0.7c0.4-0.1,0.6,0,0.7,0.5c0.1,0.5-0.1,0.8-0.4,0.9L222.6,6.4z"/>
	<path class="st0" d="M235.3,16c-0.2-0.1-0.2-0.4-0.1-0.8c0.1-0.4,0.3-0.6,0.5-0.4c0.8,0.6,1.7,1.4,2.6,2.6c1,1.2,1.7,2.4,2.3,3.6
		c1.5-1.2,3.2-2.3,5.2-3.3c1.9-1,3.7-2,5.4-2.9c0.3-0.1,0.5,0,0.6,0.4c0.1,0.4,0,0.7-0.2,0.9c-1.6,0.9-3.4,1.9-5.3,3
		c-1.9,1.1-3.7,2.2-5.1,3.2c0.1,0.6,0.2,1.1,0.2,1.6c0,1.2-0.3,2.2-0.9,3.1c-0.6,0.9-1.4,1.3-2.4,1.3c-0.4,0-0.7-0.2-1-0.6
		c-0.3-0.4-0.4-0.9-0.4-1.5c0-0.8,0.3-1.5,0.8-2.3c0.5-0.8,1.3-1.5,2.2-2.3c-0.5-1.1-1.2-2.1-2-3.1C236.9,17.3,236.1,16.5,235.3,16z
		 M240.4,23.8c0-0.4,0-0.7-0.1-0.9c-0.8,0.6-1.4,1.2-1.9,1.7c-0.5,0.5-0.7,1-0.7,1.5c0,0.4,0.1,0.6,0.4,0.6c0.7,0,1.3-0.3,1.6-0.9
		C240.2,25.2,240.4,24.5,240.4,23.8z"/>
	<path class="st0" d="M268.9,15.2c0-0.4,0.2-0.5,0.6-0.5c0.3,0,0.5,0.2,0.4,0.7l-0.4,2.7c0.3-0.3,0.7-0.8,1.2-1.3
		c0.5-0.5,1-1,1.5-1.4c0.5-0.5,1-0.8,1.6-1.2c0.5-0.3,1-0.5,1.4-0.5c0.8,0,1.2,0.4,1.2,1.1c0.1,0.7,0.1,1.5,0.1,2.3
		c0,0.5,0,0.9,0,1.3c0,0.4,0.1,0.5,0.2,0.5c0.6,0,1.4-0.3,2.2-0.9c0.9-0.6,1.7-1.3,2.6-2.1c0.9-0.8,1.8-1.5,2.6-2
		c0.8-0.6,1.5-0.9,2.1-0.9c0.8,0,1.4,0.3,1.9,1c0.5,0.7,0.9,1.5,1.3,2.4c0.4,0.8,0.8,1.5,1.2,2.3c0.5,0.7,1.1,1.1,1.9,1.1
		c0.8,0,1.7-0.2,2.7-0.7c1-0.5,1.9-1,2.8-1.6c0.9-0.6,1.6-1.2,2.3-1.7c0.6-0.5,1-0.9,1.2-1c0.2-0.3,0.5-0.2,0.6,0.2
		c0.2,0.4,0.2,0.8-0.1,1.1c-0.1,0.1-0.5,0.5-1.2,1.1c-0.7,0.6-1.5,1.2-2.4,1.8c-0.9,0.6-1.9,1.2-3,1.7c-1,0.5-2,0.7-2.9,0.7
		c-1,0-1.9-0.4-2.4-1.3c-0.6-0.8-1.1-1.8-1.6-2.7c-0.4-0.8-0.7-1.4-1.1-1.9c-0.3-0.5-0.8-0.8-1.3-0.8c-0.4,0-1,0.3-1.8,0.8
		c-0.8,0.5-1.6,1.2-2.4,1.9c-1,0.8-1.9,1.6-2.9,2.3c-1,0.7-1.8,1-2.4,1c-0.7,0-1-0.3-1.1-1c-0.1-0.7-0.1-1.4-0.1-2.3
		c0-0.5,0-0.9,0-1.3c0-0.4-0.1-0.6-0.3-0.6c-0.3,0-0.7,0.2-1.2,0.5c-0.5,0.4-1,0.8-1.6,1.3c-0.5,0.5-1.1,1-1.6,1.6
		c-0.5,0.6-1,1.1-1.4,1.5c-0.4,0.4-0.7,0.6-0.8,0.4c-0.2-0.1-0.2-0.4-0.2-0.7L268.9,15.2z"/>
	<path class="st0" d="M324.6,14.6c0.3-0.1,0.5,0,0.6,0.5c0.1,0.5,0,0.8-0.3,0.9c-2.3,0.8-4.6,1.6-6.8,2.6c-2.3,0.9-4.4,1.9-6.5,3
		v0.8c0,1.6-0.2,3.4-0.6,5.5c-0.4,2-1,3.9-1.9,5.7c-0.8,1.8-1.9,3.2-3.1,4.4c-1.3,1.2-2.8,1.8-4.5,1.8c-1,0-1.7-0.5-2.4-1.4
		c-0.6-0.9-0.9-2-0.9-3.3c0-1.5,0.3-2.9,0.9-4.2c0.6-1.3,1.5-2.6,2.6-3.8c1.1-1.2,2.4-2.3,3.9-3.4c1.5-1.1,3.1-2.1,4.9-3
		c-0.1-1.3-0.5-2-1-2c-0.8,0-1.6,0.2-2.4,0.7c-0.8,0.5-1.6,0.7-2.6,0.7c-1.1,0-1.9-0.4-2.5-1.2c-0.6-0.8-0.8-2.1-0.5-3.9
		c0.1-0.3,0.3-0.5,0.6-0.5s0.4,0.2,0.4,0.7c-0.1,1.2,0,2.1,0.4,2.6c0.4,0.6,1,0.8,1.7,0.8c0.9,0,1.7-0.2,2.4-0.7
		c0.8-0.5,1.6-0.7,2.5-0.7c0.9,0,1.5,1,1.9,2.9c2.1-1.1,4.3-2,6.5-3C320,16.3,322.3,15.5,324.6,14.6z M301.4,38.4
		c1.6,0,2.9-0.5,4.1-1.6c1.1-1.1,2.1-2.5,2.9-4.1c0.8-1.6,1.3-3.4,1.7-5.2c0.4-1.8,0.5-3.5,0.5-4.9v-0.3c-1.7,0.9-3.2,1.9-4.6,2.8
		c-1.4,1-2.6,2-3.6,3.1c-1,1.1-1.8,2.2-2.4,3.4c-0.6,1.2-0.9,2.4-0.9,3.7c0,0.8,0.2,1.6,0.6,2.2C300.2,38,300.7,38.4,301.4,38.4z"/>
	<path class="st0" d="M342.2,15.2c0.1-0.4,0.3-0.5,0.5-0.4c0.3,0.1,0.4,0.3,0.5,0.6L341.2,31c2.2-6.2,4.3-10.6,6.1-13.1
		c1.9-2.5,3.3-3.7,4.3-3.7c0.5,0,0.9,0.2,1.2,0.6c0.3,0.4,0.4,0.9,0.4,1.5c0,0.8-0.3,1.6-0.9,2.5c-0.6,0.9-1.5,1.3-2.7,1.2
		c-0.3-0.1-0.4-0.4-0.4-0.8c0-0.4,0.2-0.6,0.4-0.6c0.8,0.1,1.4-0.2,1.9-0.7c0.5-0.5,0.7-1,0.7-1.5c0-0.4-0.2-0.6-0.6-0.6
		c-0.5,0-1.2,0.4-1.9,1.1c-0.8,0.7-1.6,1.9-2.6,3.6c-1,1.6-2,3.8-3.2,6.5c-1.1,2.7-2.4,6-3.6,9.9c-0.1,0.4-0.3,0.5-0.5,0.3
		c-0.3-0.1-0.4-0.4-0.3-0.7L342.2,15.2z"/>
	<path class="st0" d="M365.4,15.2c-0.1,0.4-0.3,0.5-0.6,0.5c-0.3,0-0.4-0.3-0.4-0.7c0-0.3,0-0.6-0.1-0.9c-0.1-0.3-0.3-0.5-0.6-0.5
		c-0.4,0-0.8,0.2-1.2,0.5c-0.4,0.3-0.8,0.7-1.2,1.2c-0.4,0.5-0.7,1-1,1.5c-0.3,0.5-0.4,1-0.4,1.5c0,0.3,0.1,0.4,0.3,0.4
		c0.2,0,0.4-0.2,0.7-0.4c0.3-0.2,0.7-0.6,1-0.9c0.4-0.4,0.8-0.8,1.1-1.3c0.3-0.4,0.5-0.5,0.7-0.4c0.2,0.1,0.4,0.2,0.6,0.5
		c0.7,1,1.4,1.6,2.2,2c0.8,0.4,1.5,0.5,2.2,0.5c1.2,0,2.5-0.4,3.9-1.2c1.4-0.8,2.7-1.7,3.9-2.7c0.4-0.2,0.6-0.1,0.7,0.3
		c0.1,0.4,0.1,0.7-0.2,1c-1.2,1.1-2.6,2.1-4.1,2.9c-1.5,0.8-2.9,1.2-4.2,1.2c-1,0-1.9-0.2-2.7-0.7c-0.9-0.5-1.7-1.2-2.5-2.2
		c-1.2,1.7-2.3,2.6-3.2,2.8c-1,0.2-1.5-0.4-1.5-1.8c0-0.6,0.2-1.3,0.5-2c0.3-0.7,0.7-1.4,1.2-2c0.5-0.6,1-1.1,1.6-1.5
		s1.1-0.6,1.6-0.6c0.8,0,1.2,0.4,1.5,1.2C365.4,14,365.5,14.7,365.4,15.2z"/>
	<path class="st0" d="M376.7,16c-0.2-0.1-0.2-0.4-0.1-0.8c0.1-0.4,0.3-0.6,0.5-0.4c0.8,0.6,1.7,1.4,2.6,2.6c1,1.2,1.7,2.4,2.3,3.6
		c1.5-1.2,3.2-2.3,5.2-3.3c1.9-1,3.7-2,5.4-2.9c0.3-0.1,0.5,0,0.6,0.4c0.1,0.4,0,0.7-0.2,0.9c-1.6,0.9-3.4,1.9-5.3,3
		c-1.9,1.1-3.7,2.2-5.1,3.2c0.1,0.6,0.2,1.1,0.2,1.6c0,1.2-0.3,2.2-0.9,3.1c-0.6,0.9-1.4,1.3-2.4,1.3c-0.4,0-0.7-0.2-1-0.6
		c-0.3-0.4-0.4-0.9-0.4-1.5c0-0.8,0.3-1.5,0.8-2.3c0.5-0.8,1.3-1.5,2.2-2.3c-0.5-1.1-1.2-2.1-2-3.1C378.3,17.3,377.5,16.5,376.7,16z
		 M381.8,23.8c0-0.4,0-0.7-0.1-0.9c-0.8,0.6-1.4,1.2-1.9,1.7s-0.7,1-0.7,1.5c0,0.4,0.1,0.6,0.4,0.6c0.7,0,1.3-0.3,1.6-0.9
		C381.6,25.2,381.8,24.5,381.8,23.8z"/>
	<path class="st0" d="M392.6,16c-0.2-0.1-0.2-0.4-0.1-0.8c0.1-0.4,0.3-0.6,0.5-0.4c0.8,0.6,1.7,1.4,2.6,2.6c1,1.2,1.7,2.4,2.3,3.6
		c1.5-1.2,3.2-2.3,5.2-3.3c1.9-1,3.7-2,5.4-2.9c0.3-0.1,0.5,0,0.6,0.4c0.1,0.4,0,0.7-0.2,0.9c-1.6,0.9-3.4,1.9-5.3,3
		c-1.9,1.1-3.7,2.2-5.1,3.2c0.1,0.6,0.2,1.1,0.2,1.6c0,1.2-0.3,2.2-0.9,3.1c-0.6,0.9-1.4,1.3-2.4,1.3c-0.4,0-0.7-0.2-1-0.6
		c-0.3-0.4-0.4-0.9-0.4-1.5c0-0.8,0.3-1.5,0.8-2.3c0.5-0.8,1.3-1.5,2.2-2.3c-0.5-1.1-1.2-2.1-2-3.1C394.2,17.3,393.4,16.5,392.6,16z
		 M397.7,23.8c0-0.4,0-0.7-0.1-0.9c-0.8,0.6-1.4,1.2-1.9,1.7c-0.5,0.5-0.7,1-0.7,1.5c0,0.4,0.1,0.6,0.4,0.6c0.7,0,1.3-0.3,1.6-0.9
		C397.5,25.2,397.7,24.5,397.7,23.8z"/>
	<path class="st0" d="M408.3,15.1c0.1-0.3,0.3-0.5,0.6-0.3c0.3,0.1,0.4,0.4,0.4,0.7c-0.3,1.4-0.2,2.5,0.3,3.4
		c0.5,0.8,1.2,1.3,2.1,1.3c0.9,0,1.9-0.1,3-0.4c1.1-0.3,2.2-0.7,3.3-1.2c1.1-0.5,2.2-1.1,3.3-1.7c1.1-0.7,2.1-1.4,3-2.2
		c0.3-0.3,0.5-0.2,0.7,0.2c0.2,0.4,0.1,0.8-0.1,1.1c-1,0.8-2,1.6-3.1,2.3c-1.1,0.7-2.3,1.3-3.5,1.8c-1.2,0.5-2.3,0.9-3.5,1.2
		c-1.1,0.3-2.2,0.4-3.1,0.4c-1.3,0-2.3-0.6-3-1.7C408,18.8,407.8,17.2,408.3,15.1z M411.6,6.4c-0.3,0.1-0.5,0-0.6-0.5
		c-0.1-0.5,0-0.8,0.3-0.9l2.1-0.7c0.4-0.1,0.6,0,0.7,0.5c0.1,0.5-0.1,0.8-0.4,0.9L411.6,6.4z"/>
	<path class="st0" d="M425.2,13.7c0.3-0.1,0.5,0,0.6,0.5c0.1,0.5,0.1,0.8-0.2,0.9c-0.4,0.2-0.7,0.6-1,1.2c-0.3,0.6-0.5,1.2-0.6,1.8
		c-0.1,0.6-0.2,1.2-0.2,1.7c0,0.5,0.2,0.7,0.5,0.7c0.4,0,0.7-0.4,0.9-1.3c0.2-0.8,0.3-1.8,0.2-2.7c0-0.5,0-0.8,0.2-0.9
		c0.2-0.1,0.4-0.2,0.6-0.1c0.9,0.3,1.7,0.5,2.6,0.6c0.9,0.1,1.8,0.2,2.7,0.2c3,0,5.6-0.6,7.7-1.7c0.3-0.1,0.5,0,0.6,0.5
		c0.1,0.5,0,0.8-0.3,1c-2.1,1.1-4.8,1.7-8,1.7c-1,0-1.9,0-2.7-0.1c-0.9-0.1-1.6-0.2-2.3-0.3c0,1-0.1,2-0.5,3.1s-1,1.6-1.8,1.6
		c-0.7,0-1.1-0.4-1.3-1.2s-0.2-1.6-0.1-2.6c0.1-0.9,0.4-1.9,0.8-2.8C424.2,14.6,424.7,14,425.2,13.7z"/>
	<path class="st0" d="M439.1,15.2c0.1-0.5,0.3-0.7,0.6-0.5c0.3,0.1,0.4,0.4,0.4,0.7l-0.4,2.5c1-1,1.9-1.9,2.7-2.6
		c0.9-0.8,1.6-1.2,2.2-1.2c0.6,0,1,0.3,1.2,0.8c0.2,0.5,0.4,1,0.5,1.5c0.2,0.6,0.5,1.3,0.9,1.9c0.4,0.6,1.1,0.9,2.1,0.9
		c1,0,2.2-0.3,3.9-1c1.6-0.7,3.8-1.9,6.5-3.6c0.3-0.1,0.5,0,0.6,0.4c0.1,0.4,0.1,0.7-0.2,0.9c-2.8,1.8-5.1,3.1-6.7,3.8
		c-1.7,0.7-3,1.1-4,1.1c-0.7,0-1.2-0.1-1.6-0.3c-0.4-0.2-0.8-0.5-1.1-0.9c-0.3-0.4-0.5-0.8-0.6-1.2c-0.1-0.4-0.3-0.8-0.4-1.3
		c-0.2-1-0.5-1.5-0.9-1.5c-0.5,0-1.2,0.4-1.9,1.1c-0.8,0.7-1.9,1.9-3.4,3.6c-0.1,0.1-0.3,0.2-0.5,0.3c-0.2,0-0.3-0.1-0.3-0.5
		L439.1,15.2z"/>
</g>
</svg>
